<svg width="66" height="41" viewBox="0 0 66 41" fill="none" xmlns="http://www.w3.org/2000/svg">
<path fill-rule="evenodd" clip-rule="evenodd" d="M65.947 20.4966L65.9996 19.7568L66 19.7542L65.9998 19.7542L65.9996 19.7542L65.9967 19.7537L65.9827 19.7516L65.9224 19.7424C65.8681 19.7338 65.7861 19.7205 65.6785 19.7019C65.4632 19.6646 65.1455 19.6061 64.7427 19.5222C63.9366 19.3543 62.7911 19.0848 61.4423 18.6802C58.7393 17.8693 55.246 16.5232 52.0344 14.3821C48.8903 12.286 46.4907 8.84331 44.8646 5.86215C44.0565 4.38073 43.4501 3.03315 43.0461 2.05685C42.8443 1.56906 42.6934 1.1749 42.5934 0.904234C42.5435 0.768923 42.5063 0.664549 42.4818 0.594849C42.4696 0.559999 42.4606 0.533827 42.4548 0.516794L42.4485 0.498167L42.4471 0.494106L42.4469 0.493408C42.4469 0.493483 42.4469 0.493608 41.7354 0.73078C41.0239 0.967949 41.024 0.968149 41.0241 0.968388L41.0243 0.969051L41.025 0.971056L41.0272 0.977751L41.0354 1.00173C41.0424 1.02237 41.0527 1.05223 41.0662 1.09083C41.0933 1.16805 41.1333 1.28029 41.1863 1.4238C41.2922 1.71075 41.4502 2.12302 41.6601 2.63038C42.0797 3.6444 42.7086 5.04207 43.5477 6.58043C45.216 9.63885 47.7578 13.3338 51.2023 15.6302C54.1233 17.5775 57.2444 18.8872 59.8379 19.7466H0.00749969V21.2466H59.8379C57.2444 22.106 54.1233 23.4158 51.2023 25.3631C47.7578 27.6595 45.216 31.3544 43.5477 34.4128C42.7086 35.9512 42.0797 37.3489 41.6601 38.3629C41.4502 38.8702 41.2922 39.2825 41.1863 39.5695C41.1333 39.713 41.0933 39.8252 41.0662 39.9024C41.0527 39.941 41.0424 39.9709 41.0354 39.9915L41.0272 40.0155L41.025 40.0222L41.0243 40.0242L41.0241 40.0249C41.024 40.0251 41.0239 40.0253 41.7354 40.2625C42.4469 40.4997 42.4469 40.4998 42.4469 40.4999L42.4471 40.4992L42.4485 40.4951L42.4548 40.4765C42.4606 40.4594 42.4696 40.4333 42.4818 40.3984C42.5063 40.3287 42.5435 40.2243 42.5934 40.089C42.6934 39.8184 42.8443 39.4242 43.0461 38.9364C43.4501 37.9601 44.0565 36.6125 44.8646 35.1311C46.4907 32.15 48.8903 28.7073 52.0344 26.6112C55.246 24.4701 58.7393 23.124 61.4423 22.3131C62.7911 21.9085 63.9366 21.639 64.7427 21.4711C65.1455 21.3871 65.4632 21.3287 65.6785 21.2914C65.7861 21.2728 65.8681 21.2595 65.9224 21.2509L65.9827 21.2416L65.9967 21.2395L65.9996 21.2391L65.9998 21.2391L66 21.2391L65.9996 21.2365L65.947 20.4966Z" fill="#F2F6EF"/>
</svg>
