<svg width="141" height="45" viewBox="0 0 141 45" fill="none" xmlns="http://www.w3.org/2000/svg">
<path d="M130.882 13.1951V22.1439C130.882 23.1967 132.033 23.3612 133.152 23.3612V23.5586H125.881V23.3612C127 23.3612 128.151 23.1967 128.151 22.1439V13.9189L121.538 1.97622C120.847 0.791824 120.288 0.726025 119.169 0.726025V0.561523H126.473V0.726025C125.355 0.726025 124.072 0.857624 124.631 1.91042L130.322 12.2081H130.355L130.684 12.8332L136.409 1.97622C137.034 0.890525 136.146 0.726025 135.027 0.726025V0.561523H140.357V0.726025C139.205 0.726025 137.429 0.923425 136.804 1.97622L130.882 13.1951Z" fill="#F2F6EF"/>
<path d="M100.31 6.08891L101.79 0.528809H115.707L117.187 6.08891L117.023 6.12181L115.773 1.97641C115.444 1.05521 114.819 0.89071 113.766 0.89071H112.318C111.233 0.89071 110.114 0.89071 110.114 1.94351V22.1441C110.114 23.1969 111.265 23.3614 112.384 23.3614V23.5588H105.08V23.3614C106.232 23.3614 107.383 23.1969 107.383 22.1441V1.94351C107.383 0.89071 106.265 0.89071 105.146 0.89071H103.731C102.679 0.89071 102.021 1.05521 101.725 1.97641L100.474 6.12181L100.31 6.08891Z" fill="#F2F6EF"/>
<path d="M93.6322 12.7674H93.4677C93.4677 9.18132 92.5466 8.62202 91.3951 8.62202H90.4739C89.4869 8.62202 88.4341 8.75362 87.4471 9.01682V22.1439C87.4471 23.1967 88.5657 23.1967 89.6843 23.1967H94.9153C95.9681 23.1967 96.6261 23.0651 96.9222 22.111L98.1724 17.9656L98.3369 17.9985L96.8564 23.5586H82.4463V23.3941C83.5649 23.3941 84.7164 23.1967 84.7164 22.1439V10.2999C83.4662 11.2211 82.6108 12.57 82.6108 14.4124H82.4463C82.4463 12.4055 83.3675 10.925 84.7164 9.93802V1.97622C84.7164 0.890525 83.5649 0.726025 82.4463 0.726025V0.561523H96.8564L98.3369 6.08872L98.1724 6.15452L96.9222 1.97622C96.6261 1.05502 95.9681 0.890525 94.9153 0.890525H89.6843C88.5657 0.890525 87.4471 0.890525 87.4471 1.97622V8.68782C88.4341 8.42462 89.4869 8.29303 90.4739 8.29303H91.3951C92.5466 8.29303 93.4677 8.06272 93.4677 5.92422H93.6322V12.7674Z" fill="#F2F6EF"/>
<path d="M66.7128 0.561523V0.726025C65.7587 0.726025 64.7388 0.857624 64.673 1.58142L70.3647 17.0773L71.22 19.479L77.4052 1.97622H77.3723C77.7013 0.890525 76.2537 0.726025 75.1351 0.726025V0.561523H80.4649V0.726025C79.4121 0.726025 78.2606 0.824724 77.8329 1.71302L70.1673 23.5586H69.8054V23.5257L61.8765 1.97622C61.5146 0.758925 60.5605 0.726025 59.4419 0.726025V0.561523H66.7128Z" fill="#F2F6EF"/>
<path d="M46.5801 1.97622V22.1439C46.5801 23.1967 47.6987 23.2296 48.7844 23.2296H54.0154C55.1011 23.2296 55.7262 23.0651 56.0552 22.1439L57.3054 17.9656L57.4699 18.0314L55.9894 23.5586H41.5464V23.3941C42.6979 23.3941 43.8494 23.2296 43.8494 22.1439V1.97622C43.8494 0.890525 42.6979 0.726025 41.5464 0.726025V0.561523H48.8502V0.726025C47.7316 0.726025 46.5801 0.890525 46.5801 1.97622Z" fill="#F2F6EF"/>
<path d="M34.8686 12.7674H34.7041C34.7041 9.18132 33.7829 8.62202 32.6314 8.62202H31.7102C30.7232 8.62202 29.6704 8.75362 28.6834 9.01682V22.1439C28.6834 23.1967 29.802 23.1967 30.9206 23.1967H36.1517C37.2045 23.1967 37.8625 23.0651 38.1586 22.111L39.4088 17.9656L39.5733 17.9985L38.0928 23.5586H23.6826V23.3941C24.8012 23.3941 25.9527 23.1967 25.9527 22.1439V10.2999C24.7025 11.2211 23.8471 12.57 23.8471 14.4124H23.6826C23.6826 12.4055 24.6038 10.925 25.9527 9.93802V1.97622C25.9527 0.890525 24.8012 0.726025 23.6826 0.726025V0.561523H38.0928L39.5733 6.08872L39.4088 6.15452L38.1586 1.97622C37.8625 1.05502 37.2045 0.890525 36.1517 0.890525H30.9206C29.802 0.890525 28.6834 0.890525 28.6834 1.97622V8.68782C29.6704 8.42462 30.7232 8.29303 31.7102 8.29303H32.6314C33.7829 8.29303 34.7041 8.06272 34.7041 5.92422H34.8686V12.7674Z" fill="#F2F6EF"/>
<path d="M7.94934 0.561523V0.726025C6.99524 0.726025 5.97535 0.857624 5.90955 1.58142L11.6012 17.0773L12.4566 19.479L18.6418 1.97622H18.6089C18.9379 0.890525 17.4903 0.726025 16.3717 0.726025V0.561523H21.7015V0.726025C20.6487 0.726025 19.4972 0.824724 19.0695 1.71302L11.4038 23.5586H11.0419V23.5257L3.11306 1.97622C2.75116 0.758925 1.79706 0.726025 0.678467 0.726025V0.561523H7.94934Z" fill="#F2F6EF"/>
<path d="M115.618 43.7824C114.967 43.7824 114.477 43.601 114.146 43.2384C113.826 42.8864 113.666 42.449 113.666 41.9264C113.666 41.4464 113.783 40.9397 114.018 40.4064C114.263 39.873 114.583 39.3717 114.978 38.9024C115.383 38.433 115.826 38.0544 116.306 37.7664C116.786 37.4677 117.261 37.3184 117.73 37.3184C117.975 37.3184 118.199 37.3824 118.402 37.5104C118.615 37.6384 118.722 37.8997 118.722 38.2944C118.722 38.6997 118.599 39.0837 118.354 39.4464C118.119 39.7984 117.805 40.113 117.41 40.3904C117.026 40.6677 116.599 40.897 116.13 41.0784C115.671 41.249 115.213 41.3557 114.754 41.3984C114.733 41.505 114.717 41.6064 114.706 41.7024C114.695 41.7984 114.69 41.889 114.69 41.9744C114.69 42.1344 114.706 42.2944 114.738 42.4544C114.781 42.6144 114.85 42.7637 114.946 42.9024C115.042 43.0304 115.17 43.1317 115.33 43.2064C115.501 43.281 115.709 43.3184 115.954 43.3184C116.413 43.3184 116.866 43.1904 117.314 42.9344C117.762 42.6677 118.178 42.321 118.562 41.8944C118.946 41.4677 119.271 40.9984 119.538 40.4864L119.73 40.6304C119.442 41.2704 119.074 41.825 118.626 42.2944C118.189 42.7637 117.709 43.1264 117.186 43.3824C116.674 43.649 116.151 43.7824 115.618 43.7824ZM114.834 41.0944C115.122 40.9984 115.447 40.8597 115.81 40.6784C116.173 40.4864 116.519 40.2624 116.85 40.0064C117.191 39.7504 117.469 39.4677 117.682 39.1584C117.906 38.849 118.018 38.5237 118.018 38.1824C118.018 38.065 117.997 37.9744 117.954 37.9104C117.911 37.8464 117.821 37.8144 117.682 37.8144C117.426 37.8144 117.154 37.9157 116.866 38.1184C116.578 38.3104 116.301 38.5664 116.034 38.8864C115.767 39.2064 115.527 39.5584 115.314 39.9424C115.101 40.3264 114.941 40.7104 114.834 41.0944Z" fill="#F2F6EF"/>
<path d="M111.096 43.4947C110.733 43.4947 110.445 43.3987 110.232 43.2067C110.029 43.0147 109.928 42.764 109.928 42.4547C109.928 42.1347 110.002 41.7987 110.152 41.4467C110.301 41.0947 110.445 40.748 110.584 40.4067C110.733 40.0547 110.808 39.74 110.808 39.4627C110.808 39.1213 110.706 38.8707 110.504 38.7107C110.312 38.54 110.114 38.3853 109.912 38.2467C109.666 38.876 109.41 39.4733 109.144 40.0387C108.877 40.604 108.658 41.0307 108.488 41.3187L108.344 41.0467C108.493 40.7693 108.685 40.364 108.92 39.8307C109.165 39.2973 109.405 38.6893 109.64 38.0067C109.533 37.9 109.48 37.772 109.48 37.6227C109.48 37.3027 109.57 37.0413 109.752 36.8387C109.933 36.636 110.066 36.5347 110.152 36.5347C110.269 36.5347 110.333 36.588 110.344 36.6947C110.365 36.7907 110.376 36.8653 110.376 36.9187C110.376 36.972 110.344 37.0787 110.28 37.2387C110.226 37.388 110.2 37.4787 110.2 37.5107C110.2 37.66 110.28 37.7987 110.44 37.9267C110.61 38.044 110.802 38.1827 111.016 38.3427C111.229 38.492 111.416 38.6787 111.576 38.9027C111.746 39.116 111.832 39.3933 111.832 39.7347C111.832 40.0547 111.762 40.38 111.624 40.7107C111.496 41.0413 111.362 41.356 111.224 41.6547C111.096 41.9533 111.032 42.2147 111.032 42.4387C111.032 42.6307 111.08 42.7587 111.176 42.8227C111.272 42.8867 111.384 42.9187 111.512 42.9187C111.768 42.9187 112.029 42.8387 112.296 42.6787C112.573 42.5187 112.84 42.316 113.096 42.0707C113.352 41.8253 113.581 41.5693 113.784 41.3027C113.986 41.0253 114.136 40.7693 114.232 40.5347L114.44 40.6947C114.237 41.1427 113.96 41.5853 113.608 42.0227C113.256 42.4493 112.861 42.8013 112.424 43.0787C111.997 43.356 111.554 43.4947 111.096 43.4947Z" fill="#F2F6EF"/>
<path d="M102.127 43.8308C101.796 43.8308 101.519 43.7188 101.295 43.4948C101.06 43.2815 100.943 42.9508 100.943 42.5028C100.943 42.1188 101.028 41.7082 101.199 41.2708C101.37 40.8228 101.604 40.3855 101.903 39.9588C102.202 39.5215 102.538 39.1268 102.911 38.7748C103.295 38.4122 103.695 38.1242 104.111 37.9108C104.538 37.6975 104.959 37.5908 105.375 37.5908C105.791 37.5908 106.138 37.7028 106.415 37.9268C106.692 38.1402 106.831 38.4282 106.831 38.7908C106.831 39.0575 106.756 39.2388 106.607 39.3348C106.468 39.4308 106.282 39.4788 106.047 39.4788C106.068 39.3935 106.084 39.3028 106.095 39.2068C106.116 39.1002 106.127 39.0042 106.127 38.9188C106.127 38.6735 106.068 38.4655 105.951 38.2948C105.834 38.1135 105.631 38.0228 105.343 38.0228C105.044 38.0228 104.74 38.1295 104.431 38.3428C104.122 38.5455 103.823 38.8228 103.535 39.1748C103.247 39.5162 102.991 39.8895 102.767 40.2948C102.543 40.7002 102.367 41.1002 102.239 41.4948C102.111 41.8895 102.047 42.2415 102.047 42.5508C102.047 42.9668 102.191 43.1748 102.479 43.1748C102.724 43.1748 102.991 43.0628 103.279 42.8388C103.567 42.6042 103.86 42.3108 104.159 41.9588C104.468 41.5962 104.762 41.2228 105.039 40.8388C105.316 40.4548 105.562 40.1028 105.775 39.7828C105.818 39.7188 105.844 39.6868 105.855 39.6868C105.919 39.6975 105.999 39.7188 106.095 39.7508C106.202 39.7828 106.292 39.8255 106.367 39.8788C106.442 39.9322 106.479 40.0015 106.479 40.0868C106.479 40.1828 106.431 40.3162 106.335 40.4868C106.239 40.6468 106.132 40.8335 106.015 41.0468C105.898 41.2602 105.791 41.4788 105.695 41.7028C105.599 41.9162 105.551 42.1188 105.551 42.3108C105.551 42.4708 105.594 42.6308 105.679 42.7908C105.764 42.9402 105.903 43.0148 106.095 43.0148C106.383 43.0148 106.762 42.8068 107.231 42.3908C107.7 41.9642 108.175 41.3295 108.655 40.4868L108.815 40.6468C108.591 41.2228 108.303 41.7295 107.951 42.1668C107.599 42.6042 107.22 42.9455 106.815 43.1908C106.42 43.4362 106.031 43.5588 105.647 43.5588C105.252 43.5588 104.959 43.4415 104.767 43.2068C104.586 42.9722 104.495 42.7162 104.495 42.4388C104.495 42.3748 104.5 42.3055 104.511 42.2308C104.522 42.1455 104.532 42.0602 104.543 41.9748C104.084 42.5935 103.663 43.0575 103.279 43.3668C102.906 43.6762 102.522 43.8308 102.127 43.8308Z" fill="#F2F6EF"/>
<path d="M97.8989 43.9744C97.3869 43.9744 96.9603 43.8037 96.6189 43.4624C96.2776 43.1211 96.1069 42.6091 96.1069 41.9264C96.1069 41.3931 96.2083 40.8757 96.4109 40.3744C96.6243 39.8624 96.9016 39.4037 97.2429 38.9984C97.5843 38.5931 97.9629 38.2731 98.3789 38.0384C98.7949 37.7931 99.2056 37.6704 99.6109 37.6704C100.048 37.6704 100.347 37.7984 100.507 38.0544C100.667 38.3104 100.747 38.5771 100.747 38.8544C100.747 39.1637 100.672 39.4357 100.523 39.6704C100.384 39.9051 100.192 40.0224 99.9469 40.0224C99.7656 40.0224 99.6109 39.9424 99.4829 39.7824C99.6429 39.6971 99.7816 39.5264 99.8989 39.2704C100.016 39.0037 100.075 38.7531 100.075 38.5184C100.075 38.3904 100.048 38.2944 99.9949 38.2304C99.9523 38.1557 99.8616 38.1184 99.7229 38.1184C99.4349 38.1184 99.1363 38.2464 98.8269 38.5024C98.5283 38.7584 98.2456 39.0891 97.9789 39.4944C97.7229 39.8997 97.5096 40.3264 97.3389 40.7744C97.1789 41.2224 97.0989 41.6437 97.0989 42.0384C97.0989 42.3691 97.1789 42.6731 97.3389 42.9504C97.4989 43.2277 97.8083 43.3664 98.2669 43.3664C98.6936 43.3664 99.1203 43.2491 99.5469 43.0144C99.9843 42.7797 100.39 42.4437 100.763 42.0064C101.136 41.5691 101.435 41.0571 101.659 40.4704L101.867 40.6304C101.622 41.2704 101.286 41.8464 100.859 42.3584C100.432 42.8597 99.9629 43.2544 99.4509 43.5424C98.9389 43.8304 98.4216 43.9744 97.8989 43.9744Z" fill="#F2F6EF"/>
<path d="M93.9017 43.3987C93.5284 43.3987 93.2457 43.3027 93.0537 43.1107C92.8724 42.9187 92.7817 42.6734 92.7817 42.3747C92.7817 42.1507 92.8191 41.9161 92.8937 41.6707C92.9791 41.4254 93.0591 41.1747 93.1337 40.9187C93.2084 40.6521 93.2457 40.3961 93.2457 40.1507C93.2457 39.8521 93.1817 39.6494 93.0537 39.5427C92.9364 39.4254 92.7871 39.3667 92.6057 39.3667C92.2751 39.3667 91.9391 39.5054 91.5977 39.7827C91.2564 40.0494 90.9257 40.3961 90.6057 40.8227C90.2857 41.2387 89.9871 41.6707 89.7097 42.1187C89.4324 42.5667 89.1871 42.9667 88.9737 43.3187C88.8031 43.3187 88.6431 43.2867 88.4937 43.2227C88.3337 43.1694 88.2111 43.0841 88.1257 42.9667C88.1257 42.9134 88.1844 42.7481 88.3017 42.4707C88.4084 42.1934 88.5364 41.8521 88.6857 41.4467C88.8351 41.0414 88.9684 40.6254 89.0857 40.1987C89.2031 39.7721 89.2617 39.3827 89.2617 39.0307C89.3257 38.9561 89.4271 38.8814 89.5657 38.8067C89.7044 38.7321 89.8484 38.6947 89.9977 38.6947C90.2857 38.6947 90.4297 38.8334 90.4297 39.1107C90.4297 39.2814 90.3817 39.5694 90.2857 39.9747C90.1897 40.3694 90.0671 40.7854 89.9177 41.2227C90.2057 40.7854 90.5257 40.3534 90.8777 39.9267C91.2404 39.4894 91.6244 39.1267 92.0297 38.8387C92.4351 38.5507 92.8404 38.4067 93.2457 38.4067C93.6617 38.4067 93.9604 38.5561 94.1417 38.8547C94.3337 39.1534 94.4297 39.4841 94.4297 39.8467C94.4297 40.1774 94.3764 40.4867 94.2697 40.7747C94.1631 41.0521 94.0511 41.3241 93.9337 41.5907C93.8271 41.8467 93.7737 42.1081 93.7737 42.3747C93.7737 42.5987 93.8164 42.7587 93.9017 42.8547C93.9977 42.9401 94.1151 42.9827 94.2537 42.9827C94.5204 42.9827 94.7871 42.8601 95.0537 42.6147C95.3204 42.3587 95.5764 42.0387 95.8217 41.6547C96.0777 41.2707 96.3017 40.8814 96.4937 40.4867L96.6697 40.6947C96.4457 41.2174 96.1951 41.6814 95.9177 42.0867C95.6404 42.4921 95.3364 42.8121 95.0057 43.0467C94.6751 43.2814 94.3071 43.3987 93.9017 43.3987Z" fill="#F2F6EF"/>
<path d="M86.0264 43.4946C85.6104 43.4946 85.3011 43.3613 85.0984 43.0946C84.8958 42.8386 84.7944 42.524 84.7944 42.1506C84.7944 41.9053 84.8371 41.596 84.9224 41.2226C85.0184 40.8493 85.1411 40.46 85.2904 40.0546C85.4398 39.6386 85.6104 39.2493 85.8024 38.8866C86.0051 38.524 86.2184 38.2306 86.4424 38.0066C86.6664 37.772 86.8851 37.6546 87.0984 37.6546C87.1944 37.6546 87.2744 37.6866 87.3384 37.7506C87.4131 37.804 87.4504 37.8893 87.4504 38.0066C87.4504 38.1346 87.3651 38.3426 87.1944 38.6306C87.0344 38.9186 86.8424 39.2493 86.6184 39.6226C86.3944 39.996 86.1971 40.3906 86.0264 40.8066C85.8664 41.212 85.7864 41.6013 85.7864 41.9746C85.7864 42.3586 85.8504 42.6146 85.9784 42.7426C86.1064 42.8706 86.3038 42.9346 86.5704 42.9346C86.9331 42.9346 87.3171 42.7533 87.7224 42.3906C88.1384 42.028 88.5758 41.3933 89.0344 40.4866L89.1784 40.6466C88.8691 41.564 88.4211 42.268 87.8344 42.7586C87.2584 43.2493 86.6558 43.4946 86.0264 43.4946ZM87.9464 36.1666C87.7758 36.1666 87.6211 36.124 87.4824 36.0386C87.3544 35.9533 87.2904 35.82 87.2904 35.6386C87.2904 35.4146 87.4184 35.2226 87.6744 35.0626C87.9411 34.892 88.2024 34.8066 88.4584 34.8066C88.6184 34.8066 88.7464 34.844 88.8424 34.9186C88.9384 34.9933 88.9864 35.1213 88.9864 35.3026C88.9864 35.5053 88.8744 35.7026 88.6504 35.8946C88.4371 36.076 88.2024 36.1666 87.9464 36.1666Z" fill="#F2F6EF"/>
<path d="M82.4859 43.6868C82.1872 43.6868 81.9312 43.5855 81.7179 43.3828C81.5045 43.1801 81.3339 42.9241 81.2059 42.6148C81.0885 42.3055 80.9979 41.9908 80.9339 41.6708C80.8805 41.3401 80.8539 41.0521 80.8539 40.8068C80.9712 40.8068 81.1419 40.7801 81.3659 40.7268C81.5899 40.6628 81.8192 40.5721 82.0539 40.4548C82.2885 40.3268 82.4859 40.1668 82.6459 39.9748C82.8165 39.7721 82.9019 39.5375 82.9019 39.2708C82.9019 39.0468 82.8219 38.8708 82.6619 38.7428C82.5019 38.6148 82.3152 38.5508 82.1019 38.5508C81.7712 38.5508 81.4619 38.6681 81.1739 38.9028C80.8859 39.1268 80.6245 39.4255 80.3899 39.7988C80.1659 40.1615 79.9632 40.5508 79.7819 40.9668C79.6005 41.3828 79.4459 41.7775 79.3179 42.1508C79.1899 42.5241 79.0832 42.8335 78.9979 43.0788C78.9339 43.2708 78.8432 43.3988 78.7259 43.4628C78.6085 43.5375 78.4859 43.5748 78.3579 43.5748C78.1765 43.5748 78.0432 43.5001 77.9579 43.3508C77.8832 43.2015 77.8352 43.0148 77.8139 42.7908C77.8032 42.5561 77.7979 42.3161 77.7979 42.0708C77.7979 41.5161 77.8885 40.8761 78.0699 40.1508C78.2512 39.4255 78.4912 38.6735 78.7899 37.8948C79.0992 37.1055 79.4352 36.3428 79.7979 35.6068C80.1605 34.8708 80.5232 34.2041 80.8859 33.6068C81.2485 33.0095 81.5845 32.5348 81.8939 32.1828C82.2032 31.8308 82.4539 31.6548 82.6459 31.6548C82.7952 31.6548 82.9125 31.7561 82.9979 31.9588C83.0939 32.1615 83.1419 32.4068 83.1419 32.6948C83.1419 33.0575 83.0619 33.4681 82.9019 33.9268C82.7419 34.3748 82.5125 34.8281 82.2139 35.2868C81.9259 35.7455 81.5792 36.1775 81.1739 36.5828C80.7792 36.9881 80.3472 37.3348 79.8779 37.6228C79.5259 38.4868 79.2592 39.3295 79.0779 40.1508C78.9072 40.9615 78.8219 41.6441 78.8219 42.1988C78.9925 41.7721 79.1952 41.3028 79.4299 40.7908C79.6752 40.2788 79.9525 39.7881 80.2619 39.3188C80.5712 38.8495 80.9072 38.4655 81.2699 38.1668C81.6325 37.8681 82.0112 37.7188 82.4059 37.7188C82.8005 37.7188 83.1365 37.8575 83.4139 38.1348C83.6912 38.4121 83.8299 38.7481 83.8299 39.1428C83.8299 39.4841 83.7392 39.7775 83.5579 40.0228C83.3872 40.2575 83.1739 40.4495 82.9179 40.5988C82.6725 40.7375 82.4219 40.8441 82.1659 40.9188C81.9205 40.9828 81.7179 41.0148 81.5579 41.0148C81.5685 41.1001 81.6005 41.2548 81.6539 41.4788C81.7072 41.7028 81.7819 41.9375 81.8779 42.1828C81.9845 42.4281 82.1125 42.6415 82.2619 42.8228C82.4112 42.9935 82.5925 43.0788 82.8059 43.0788C83.1152 43.0788 83.4085 42.9615 83.6859 42.7268C83.9632 42.4921 84.2245 42.1828 84.4699 41.7988C84.7259 41.4041 84.9605 40.9615 85.1739 40.4708L85.3339 40.6308C85.1845 41.1535 84.9552 41.6495 84.6459 42.1188C84.3365 42.5775 83.9899 42.9508 83.6059 43.2388C83.2325 43.5375 82.8592 43.6868 82.4859 43.6868ZM80.1499 36.9828C80.6405 36.5881 81.0672 36.1401 81.4299 35.6388C81.8032 35.1375 82.0912 34.6575 82.2939 34.1988C82.4965 33.7295 82.5979 33.3615 82.5979 33.0948C82.5979 33.0415 82.5925 33.0041 82.5819 32.9828C82.5819 32.9615 82.5712 32.9508 82.5499 32.9508C82.4432 32.9508 82.2565 33.1375 81.9899 33.5108C81.7339 33.8841 81.4405 34.3801 81.1099 34.9988C80.7792 35.6068 80.4592 36.2681 80.1499 36.9828Z" fill="#F2F6EF"/>
<path d="M73.8982 43.8948C73.3969 43.8948 72.9969 43.7828 72.6982 43.5588C72.4102 43.3455 72.2075 43.0788 72.0902 42.7588C71.9622 42.4388 71.8982 42.1188 71.8982 41.7988C71.8982 41.4788 71.9409 41.2335 72.0262 41.0628C72.1115 40.8921 72.2129 40.7641 72.3302 40.6788C72.4582 40.5935 72.5755 40.5295 72.6822 40.4868C72.7995 40.4441 72.8795 40.4015 72.9222 40.3588C73.2422 40.0068 73.5355 39.6388 73.8022 39.2548C74.0689 38.8708 74.3035 38.4655 74.5062 38.0388V37.8468C74.5062 37.4521 74.5702 37.1748 74.6982 37.0148C74.8369 36.8441 74.9809 36.7588 75.1302 36.7588C75.2155 36.7588 75.2795 36.7801 75.3222 36.8228C75.3649 36.8655 75.3862 36.9135 75.3862 36.9668C75.3862 37.0201 75.3702 37.1055 75.3382 37.2228C75.3062 37.3401 75.2902 37.4895 75.2902 37.6708C75.2902 38.0228 75.3595 38.4068 75.4982 38.8228C75.6369 39.2281 75.7755 39.6601 75.9142 40.1188C76.0529 40.5668 76.1222 41.0361 76.1222 41.5268C76.1222 41.6655 76.1115 41.8041 76.0902 41.9428C76.0795 42.0708 76.0582 42.1935 76.0262 42.3108C76.3995 42.2468 76.7515 42.0815 77.0822 41.8148C77.4129 41.5375 77.7329 41.1001 78.0422 40.5028L78.1862 40.6628C77.9835 41.2495 77.6795 41.6975 77.2742 42.0068C76.8689 42.3055 76.4262 42.4921 75.9462 42.5668C75.7755 43.0255 75.5035 43.3615 75.1302 43.5748C74.7675 43.7881 74.3569 43.8948 73.8982 43.8948ZM73.9302 43.3348C74.0582 43.3348 74.2289 43.2921 74.4422 43.2068C74.6555 43.1215 74.8209 42.9028 74.9382 42.5508C74.4902 42.4655 74.0902 42.2895 73.7382 42.0228C73.3969 41.7561 73.1409 41.4895 72.9702 41.2228C72.7355 41.2335 72.6182 41.4201 72.6182 41.7828C72.6182 42.1668 72.7302 42.5241 72.9542 42.8548C73.1889 43.1748 73.5142 43.3348 73.9302 43.3348ZM75.0182 42.2948C75.0395 42.1881 75.0555 42.0761 75.0662 41.9588C75.0769 41.8415 75.0822 41.7028 75.0822 41.5428C75.0822 41.0415 75.0182 40.5455 74.8902 40.0548C74.7729 39.5535 74.6715 39.0841 74.5862 38.6468C74.3409 39.0521 74.0795 39.4415 73.8022 39.8148C73.5355 40.1775 73.2795 40.4815 73.0342 40.7268C73.1942 41.0681 73.4395 41.3881 73.7702 41.6868C74.1115 41.9855 74.5275 42.1881 75.0182 42.2948Z" fill="#F2F6EF"/>
<path d="M61.2745 44.4707C60.6345 44.4707 60.0799 44.3374 59.6105 44.0707C59.1412 43.804 58.7785 43.452 58.5225 43.0147C58.2772 42.5667 58.1545 42.0814 58.1545 41.5587C58.1545 41.068 58.2612 40.588 58.4745 40.1187C58.6879 39.6494 58.9812 39.2227 59.3545 38.8387C59.7385 38.444 60.1812 38.124 60.6825 37.8787C61.1839 37.6227 61.7225 37.468 62.2985 37.4147C61.8825 37.0734 61.5732 36.6787 61.3705 36.2307C61.1785 35.7827 61.0825 35.3347 61.0825 34.8867C61.0825 34.3214 61.2265 33.788 61.5145 33.2867C61.8025 32.7747 62.1919 32.364 62.6825 32.0547C63.1839 31.7347 63.7545 31.5747 64.3945 31.5747C64.9705 31.5747 65.4025 31.7187 65.6905 32.0067C65.9892 32.2947 66.1385 32.716 66.1385 33.2707C66.1385 33.6654 66.0745 34.0547 65.9465 34.4387C65.8185 34.812 65.6585 35.1214 65.4665 35.3667C65.2852 35.6014 65.1039 35.7187 64.9225 35.7187C64.8052 35.7187 64.6932 35.6707 64.5865 35.5747C64.4799 35.468 64.3945 35.3454 64.3305 35.2067C64.7039 34.876 65.0132 34.5347 65.2585 34.1827C65.5145 33.82 65.6425 33.4307 65.6425 33.0147C65.6425 32.684 65.5519 32.4174 65.3705 32.2147C65.1999 32.0014 64.9279 31.8947 64.5545 31.8947C64.0532 31.8947 63.6319 32.0494 63.2905 32.3587C62.9492 32.6574 62.6879 33.0574 62.5065 33.5587C62.3359 34.0494 62.2505 34.5827 62.2505 35.1587C62.2505 35.4147 62.2719 35.6867 62.3145 35.9747C62.3679 36.2627 62.4585 36.5454 62.5865 36.8227C62.7252 37.1 62.9225 37.3507 63.1785 37.5747C62.4639 37.692 61.8399 37.964 61.3065 38.3907C60.7839 38.8174 60.3732 39.3187 60.0745 39.8947C59.7865 40.4707 59.6425 41.0414 59.6425 41.6067C59.6425 41.9587 59.7065 42.316 59.8345 42.6787C59.9732 43.0307 60.1919 43.324 60.4905 43.5587C60.7892 43.804 61.1892 43.9267 61.6905 43.9267C62.2559 43.9267 62.7999 43.7827 63.3225 43.4947C63.8559 43.2067 64.3359 42.8227 64.7625 42.3427C65.1999 41.8627 65.5572 41.324 65.8345 40.7267C66.1119 40.1187 66.2879 39.4947 66.3625 38.8547C66.1385 38.8654 65.9305 38.8814 65.7385 38.9027C65.5572 38.924 65.3545 38.956 65.1305 38.9987C64.9065 39.0307 64.6185 39.084 64.2665 39.1587C64.2879 38.7107 64.4585 38.412 64.7785 38.2627C65.0985 38.1134 65.4825 38.0387 65.9305 38.0387C66.2505 38.0387 66.5545 38.06 66.8425 38.1027C67.1305 38.1454 67.4025 38.188 67.6585 38.2307C67.9252 38.2734 68.1652 38.3 68.3785 38.3107C68.2612 38.556 68.1439 38.7054 68.0265 38.7587C67.9199 38.8014 67.8132 38.8227 67.7065 38.8227C67.5252 38.8227 67.3545 38.828 67.1945 38.8387C67.0452 38.8387 66.9065 38.8387 66.7785 38.8387C66.7039 39.5747 66.5012 40.2787 66.1705 40.9507C65.8505 41.6227 65.4345 42.2254 64.9225 42.7587C64.4212 43.2814 63.8559 43.6974 63.2265 44.0067C62.6079 44.316 61.9572 44.4707 61.2745 44.4707Z" fill="#F2F6EF"/>
<path d="M51.593 43.5586C51.1343 43.5586 50.8037 43.3986 50.601 43.0786C50.409 42.7693 50.313 42.3799 50.313 41.9106C50.313 41.3986 50.409 40.7906 50.601 40.0866C50.793 39.3826 51.0437 38.6413 51.353 37.8626C51.673 37.0839 52.0197 36.3266 52.393 35.5906C52.7663 34.8439 53.1397 34.1666 53.513 33.5586C53.8863 32.9506 54.2277 32.4653 54.537 32.1026C54.857 31.7399 55.1077 31.5586 55.289 31.5586C55.4063 31.5586 55.5023 31.6279 55.577 31.7666C55.6517 31.8946 55.7103 32.0546 55.753 32.2466C55.7957 32.4279 55.817 32.5933 55.817 32.7426C55.817 33.0306 55.7423 33.4093 55.593 33.8786C55.4543 34.3373 55.2517 34.8546 54.985 35.4306C54.729 35.9959 54.4197 36.5719 54.057 37.1586C53.705 37.7346 53.3157 38.2893 52.889 38.8226C52.473 39.3559 52.0303 39.8146 51.561 40.1986C51.497 40.4866 51.4437 40.7693 51.401 41.0466C51.369 41.3133 51.353 41.5693 51.353 41.8146C51.353 42.2306 51.4117 42.5399 51.529 42.7426C51.6463 42.9453 51.8223 43.0466 52.057 43.0466C52.345 43.0466 52.6277 42.9186 52.905 42.6626C53.193 42.4066 53.4597 42.0866 53.705 41.7026C53.961 41.3079 54.1797 40.9026 54.361 40.4866L54.601 40.6146C54.1743 41.5213 53.7103 42.2413 53.209 42.7746C52.7077 43.2973 52.169 43.5586 51.593 43.5586ZM51.705 39.6546C52.0783 39.2813 52.441 38.8546 52.793 38.3746C53.145 37.8839 53.4703 37.3773 53.769 36.8546C54.0783 36.3319 54.3503 35.8253 54.585 35.3346C54.8197 34.8439 55.001 34.4066 55.129 34.0226C55.257 33.6279 55.321 33.3239 55.321 33.1106C55.321 33.0039 55.305 32.9346 55.273 32.9026C55.2517 32.8706 55.2303 32.8546 55.209 32.8546C55.1237 32.8546 54.9743 32.9933 54.761 33.2706C54.5583 33.5373 54.3183 33.8999 54.041 34.3586C53.7637 34.8173 53.481 35.3399 53.193 35.9266C52.905 36.5133 52.6277 37.1266 52.361 37.7666C52.105 38.4066 51.8863 39.0359 51.705 39.6546Z" fill="#F2F6EF"/>
<path d="M44.0644 43.8308C43.7337 43.8308 43.4564 43.7188 43.2324 43.4948C42.9977 43.2815 42.8804 42.9508 42.8804 42.5028C42.8804 42.1188 42.9657 41.7082 43.1364 41.2708C43.307 40.8228 43.5417 40.3855 43.8404 39.9588C44.139 39.5215 44.475 39.1268 44.8484 38.7748C45.2324 38.4122 45.6324 38.1242 46.0484 37.9108C46.475 37.6975 46.8964 37.5908 47.3124 37.5908C47.7284 37.5908 48.075 37.7028 48.3524 37.9268C48.6297 38.1402 48.7684 38.4282 48.7684 38.7908C48.7684 39.0575 48.6937 39.2388 48.5444 39.3348C48.4057 39.4308 48.219 39.4788 47.9844 39.4788C48.0057 39.3935 48.0217 39.3028 48.0324 39.2068C48.0537 39.1002 48.0644 39.0042 48.0644 38.9188C48.0644 38.6735 48.0057 38.4655 47.8884 38.2948C47.771 38.1135 47.5684 38.0228 47.2804 38.0228C46.9817 38.0228 46.6777 38.1295 46.3684 38.3428C46.059 38.5455 45.7604 38.8228 45.4724 39.1748C45.1844 39.5162 44.9284 39.8895 44.7044 40.2948C44.4804 40.7002 44.3044 41.1002 44.1764 41.4948C44.0484 41.8895 43.9844 42.2415 43.9844 42.5508C43.9844 42.9668 44.1284 43.1748 44.4164 43.1748C44.6617 43.1748 44.9284 43.0628 45.2164 42.8388C45.5044 42.6042 45.7977 42.3108 46.0964 41.9588C46.4057 41.5962 46.699 41.2228 46.9764 40.8388C47.2537 40.4548 47.499 40.1028 47.7124 39.7828C47.755 39.7188 47.7817 39.6868 47.7924 39.6868C47.8564 39.6975 47.9364 39.7188 48.0324 39.7508C48.139 39.7828 48.2297 39.8255 48.3044 39.8788C48.379 39.9322 48.4164 40.0015 48.4164 40.0868C48.4164 40.1828 48.3684 40.3162 48.2724 40.4868C48.1764 40.6468 48.0697 40.8335 47.9524 41.0468C47.835 41.2602 47.7284 41.4788 47.6324 41.7028C47.5364 41.9162 47.4884 42.1188 47.4884 42.3108C47.4884 42.4708 47.531 42.6308 47.6164 42.7908C47.7017 42.9402 47.8404 43.0148 48.0324 43.0148C48.3204 43.0148 48.699 42.8068 49.1684 42.3908C49.6377 41.9642 50.1124 41.3295 50.5924 40.4868L50.7524 40.6468C50.5284 41.2228 50.2404 41.7295 49.8884 42.1668C49.5364 42.6042 49.1577 42.9455 48.7524 43.1908C48.3577 43.4362 47.9684 43.5588 47.5844 43.5588C47.1897 43.5588 46.8964 43.4415 46.7044 43.2068C46.523 42.9722 46.4324 42.7162 46.4324 42.4388C46.4324 42.3748 46.4377 42.3055 46.4484 42.2308C46.459 42.1455 46.4697 42.0602 46.4804 41.9748C46.0217 42.5935 45.6004 43.0575 45.2164 43.3668C44.843 43.6762 44.459 43.8308 44.0644 43.8308Z" fill="#F2F6EF"/>
<path d="M40.5889 43.4946C40.1729 43.4946 39.8636 43.3613 39.6609 43.0946C39.4583 42.8386 39.3569 42.524 39.3569 42.1506C39.3569 41.9053 39.3996 41.596 39.4849 41.2226C39.5809 40.8493 39.7036 40.46 39.8529 40.0546C40.0023 39.6386 40.1729 39.2493 40.3649 38.8866C40.5676 38.524 40.7809 38.2306 41.0049 38.0066C41.2289 37.772 41.4476 37.6546 41.6609 37.6546C41.7569 37.6546 41.8369 37.6866 41.9009 37.7506C41.9756 37.804 42.0129 37.8893 42.0129 38.0066C42.0129 38.1346 41.9276 38.3426 41.7569 38.6306C41.5969 38.9186 41.4049 39.2493 41.1809 39.6226C40.9569 39.996 40.7596 40.3906 40.5889 40.8066C40.4289 41.212 40.3489 41.6013 40.3489 41.9746C40.3489 42.3586 40.4129 42.6146 40.5409 42.7426C40.6689 42.8706 40.8663 42.9346 41.1329 42.9346C41.4956 42.9346 41.8796 42.7533 42.2849 42.3906C42.7009 42.028 43.1383 41.3933 43.5969 40.4866L43.7409 40.6466C43.4316 41.564 42.9836 42.268 42.3969 42.7586C41.8209 43.2493 41.2183 43.4946 40.5889 43.4946ZM42.5089 36.1666C42.3383 36.1666 42.1836 36.124 42.0449 36.0386C41.9169 35.9533 41.8529 35.82 41.8529 35.6386C41.8529 35.4146 41.9809 35.2226 42.2369 35.0626C42.5036 34.892 42.7649 34.8066 43.0209 34.8066C43.1809 34.8066 43.3089 34.844 43.4049 34.9186C43.5009 34.9933 43.5489 35.1213 43.5489 35.3026C43.5489 35.5053 43.4369 35.7026 43.2129 35.8946C42.9996 36.076 42.7649 36.1666 42.5089 36.1666Z" fill="#F2F6EF"/>
<path d="M35.9771 43.9744C35.4651 43.9744 35.0384 43.8037 34.6971 43.4624C34.3557 43.1211 34.1851 42.6091 34.1851 41.9264C34.1851 41.3931 34.2864 40.8757 34.4891 40.3744C34.7024 39.8624 34.9797 39.4037 35.3211 38.9984C35.6624 38.5931 36.0411 38.2731 36.4571 38.0384C36.8731 37.7931 37.2837 37.6704 37.6891 37.6704C38.1264 37.6704 38.4251 37.7984 38.5851 38.0544C38.7451 38.3104 38.8251 38.5771 38.8251 38.8544C38.8251 39.1637 38.7504 39.4357 38.6011 39.6704C38.4624 39.9051 38.2704 40.0224 38.0251 40.0224C37.8437 40.0224 37.6891 39.9424 37.5611 39.7824C37.7211 39.6971 37.8597 39.5264 37.9771 39.2704C38.0944 39.0037 38.1531 38.7531 38.1531 38.5184C38.1531 38.3904 38.1264 38.2944 38.0731 38.2304C38.0304 38.1557 37.9397 38.1184 37.8011 38.1184C37.5131 38.1184 37.2144 38.2464 36.9051 38.5024C36.6064 38.7584 36.3237 39.0891 36.0571 39.4944C35.8011 39.8997 35.5877 40.3264 35.4171 40.7744C35.2571 41.2224 35.1771 41.6437 35.1771 42.0384C35.1771 42.3691 35.2571 42.6731 35.4171 42.9504C35.5771 43.2277 35.8864 43.3664 36.3451 43.3664C36.7717 43.3664 37.1984 43.2491 37.6251 43.0144C38.0624 42.7797 38.4677 42.4437 38.8411 42.0064C39.2144 41.5691 39.5131 41.0571 39.7371 40.4704L39.9451 40.6304C39.6997 41.2704 39.3637 41.8464 38.9371 42.3584C38.5104 42.8597 38.0411 43.2544 37.5291 43.5424C37.0171 43.8304 36.4997 43.9744 35.9771 43.9744Z" fill="#F2F6EF"/>
<path d="M28.0644 43.8308C27.7337 43.8308 27.4564 43.7188 27.2324 43.4948C26.9977 43.2815 26.8804 42.9508 26.8804 42.5028C26.8804 42.1188 26.9657 41.7082 27.1364 41.2708C27.307 40.8228 27.5417 40.3855 27.8404 39.9588C28.139 39.5215 28.475 39.1268 28.8484 38.7748C29.2324 38.4122 29.6324 38.1242 30.0484 37.9108C30.475 37.6975 30.8964 37.5908 31.3124 37.5908C31.7284 37.5908 32.075 37.7028 32.3524 37.9268C32.6297 38.1402 32.7684 38.4282 32.7684 38.7908C32.7684 39.0575 32.6937 39.2388 32.5444 39.3348C32.4057 39.4308 32.219 39.4788 31.9844 39.4788C32.0057 39.3935 32.0217 39.3028 32.0324 39.2068C32.0537 39.1002 32.0644 39.0042 32.0644 38.9188C32.0644 38.6735 32.0057 38.4655 31.8884 38.2948C31.771 38.1135 31.5684 38.0228 31.2804 38.0228C30.9817 38.0228 30.6777 38.1295 30.3684 38.3428C30.059 38.5455 29.7604 38.8228 29.4724 39.1748C29.1844 39.5162 28.9284 39.8895 28.7044 40.2948C28.4804 40.7002 28.3044 41.1002 28.1764 41.4948C28.0484 41.8895 27.9844 42.2415 27.9844 42.5508C27.9844 42.9668 28.1284 43.1748 28.4164 43.1748C28.6617 43.1748 28.9284 43.0628 29.2164 42.8388C29.5044 42.6042 29.7977 42.3108 30.0964 41.9588C30.4057 41.5962 30.699 41.2228 30.9764 40.8388C31.2537 40.4548 31.499 40.1028 31.7124 39.7828C31.755 39.7188 31.7817 39.6868 31.7924 39.6868C31.8564 39.6975 31.9364 39.7188 32.0324 39.7508C32.139 39.7828 32.2297 39.8255 32.3044 39.8788C32.379 39.9322 32.4164 40.0015 32.4164 40.0868C32.4164 40.1828 32.3684 40.3162 32.2724 40.4868C32.1764 40.6468 32.0697 40.8335 31.9524 41.0468C31.835 41.2602 31.7284 41.4788 31.6324 41.7028C31.5364 41.9162 31.4884 42.1188 31.4884 42.3108C31.4884 42.4708 31.531 42.6308 31.6164 42.7908C31.7017 42.9402 31.8404 43.0148 32.0324 43.0148C32.3204 43.0148 32.699 42.8068 33.1684 42.3908C33.6377 41.9642 34.1124 41.3295 34.5924 40.4868L34.7524 40.6468C34.5284 41.2228 34.2404 41.7295 33.8884 42.1668C33.5364 42.6042 33.1577 42.9455 32.7524 43.1908C32.3577 43.4362 31.9684 43.5588 31.5844 43.5588C31.1897 43.5588 30.8964 43.4415 30.7044 43.2068C30.523 42.9722 30.4324 42.7162 30.4324 42.4388C30.4324 42.3748 30.4377 42.3055 30.4484 42.2308C30.459 42.1455 30.4697 42.0602 30.4804 41.9748C30.0217 42.5935 29.6004 43.0575 29.2164 43.3668C28.843 43.6762 28.459 43.8308 28.0644 43.8308Z" fill="#F2F6EF"/>
<path d="M22.6814 44.4707C22.1908 44.428 21.8868 44.2947 21.7694 44.0707C21.6521 43.8467 21.5934 43.5587 21.5934 43.2067C21.5934 42.8227 21.6734 42.3533 21.8334 41.7987C21.9934 41.2333 22.1908 40.62 22.4254 39.9587C22.6708 39.2973 22.9161 38.636 23.1614 37.9747C23.0334 37.9853 22.8948 38.0013 22.7454 38.0227C22.6068 38.0333 22.4308 38.0547 22.2174 38.0867C22.0041 38.108 21.7268 38.1453 21.3854 38.1987C21.4068 37.9213 21.5081 37.708 21.6894 37.5587C21.8814 37.3987 22.1321 37.2813 22.4414 37.2067C22.7508 37.132 23.0974 37.0893 23.4814 37.0787C23.7801 36.2573 24.0841 35.4573 24.3934 34.6787C24.7134 33.8893 25.0281 33.1693 25.3374 32.5187C25.2308 32.508 25.1241 32.5027 25.0174 32.5027C24.9214 32.492 24.8201 32.4867 24.7134 32.4867C24.0308 32.4867 23.5028 32.556 23.1294 32.6947C22.7561 32.8333 22.5001 33.0467 22.3614 33.3347C22.2228 33.6227 22.1534 33.9907 22.1534 34.4387C22.1534 34.6733 22.1694 34.892 22.2014 35.0947C22.2334 35.2867 22.2868 35.4893 22.3614 35.7027C21.9988 35.6387 21.7321 35.5 21.5614 35.2867C21.3908 35.0627 21.3054 34.7853 21.3054 34.4547C21.3054 33.9 21.5028 33.4147 21.8974 32.9987C22.2921 32.572 22.8201 32.2413 23.4814 32.0067C24.1534 31.7613 24.8948 31.6387 25.7054 31.6387C26.2708 31.6387 26.8148 31.6813 27.3374 31.7667C27.8708 31.8413 28.3881 31.8787 28.8894 31.8787C29.1134 31.8787 29.3161 31.868 29.4974 31.8467C29.6894 31.8147 29.8814 31.772 30.0734 31.7187C29.6788 32.1667 29.3481 32.4653 29.0814 32.6147C28.8148 32.764 28.5428 32.8387 28.2654 32.8387C28.0201 32.8387 27.7001 32.8067 27.3054 32.7427C26.9214 32.668 26.4841 32.6093 25.9934 32.5667C25.8548 32.9187 25.7001 33.3453 25.5294 33.8467C25.3588 34.3373 25.1828 34.8653 25.0014 35.4307C24.8201 35.9853 24.6388 36.54 24.4574 37.0947C24.9908 37.1267 25.4921 37.1747 25.9614 37.2387C26.4414 37.3027 26.8734 37.34 27.2574 37.3507C27.1721 37.4787 27.0708 37.58 26.9534 37.6547C26.8468 37.7187 26.6921 37.7667 26.4894 37.7987C26.2868 37.8307 26.0041 37.8573 25.6414 37.8787C25.2894 37.8893 24.8148 37.9 24.2174 37.9107C24.1534 38.1347 24.0734 38.4013 23.9774 38.7107C23.8814 39.02 23.7961 39.3133 23.7214 39.5907C23.6468 39.868 23.5881 40.0707 23.5454 40.1987C23.3108 41.02 23.1081 41.788 22.9374 42.5027C22.7774 43.2173 22.6921 43.8733 22.6814 44.4707Z" fill="#F2F6EF"/>
</svg>
